<svg width="13" height="13" viewBox="0 0 13 13" fill="none" xmlns="http://www.w3.org/2000/svg">
<path d="M11.5556 0C11.9386 0 12.306 0.152182 12.5769 0.423068C12.8478 0.693954 13 1.06135 13 1.44444V11.5556C13 11.9386 12.8478 12.306 12.5769 12.5769C12.306 12.8478 11.9386 13 11.5556 13H1.44444C1.06135 13 0.693954 12.8478 0.423068 12.5769C0.152182 12.306 0 11.9386 0 11.5556V1.44444C0 1.06135 0.152182 0.693954 0.423068 0.423068C0.693954 0.152182 1.06135 0 1.44444 0H11.5556ZM11.1944 11.1944V7.36667C11.1944 6.74223 10.9464 6.14337 10.5048 5.70182C10.0633 5.26028 9.46444 5.01222 8.84 5.01222C8.22611 5.01222 7.51111 5.38778 7.16444 5.95111V5.14944H5.14944V11.1944H7.16444V7.63389C7.16444 7.07778 7.61222 6.62278 8.16833 6.62278C8.4365 6.62278 8.69368 6.72931 8.8833 6.91893C9.07292 7.10855 9.17944 7.36573 9.17944 7.63389V11.1944H11.1944ZM2.80222 4.01556C3.12402 4.01556 3.43263 3.88772 3.66018 3.66018C3.88772 3.43263 4.01556 3.12402 4.01556 2.80222C4.01556 2.13056 3.47389 1.58167 2.80222 1.58167C2.47851 1.58167 2.16806 1.71026 1.93916 1.93916C1.71026 2.16806 1.58167 2.47851 1.58167 2.80222C1.58167 3.47389 2.13056 4.01556 2.80222 4.01556ZM3.80611 11.1944V5.14944H1.80556V11.1944H3.80611Z" fill="black"/>
</svg>
